Naruto Shippuuden Episodes 144-178, sans filler, intro, outros, MANGA EDIT

Japanese Audio/ English H.Sub

Format : MPEG-4
Codec ID : M4V
File size : 1.54 GiB
Duration : 6h 24mn
Overall bit rate mode : Variable
Overall bit rate : 573 Kbps
Encoded date : UTC 2013-02-02 08:37:47

Video
ID : 1
Format : AVC
Format/Info : Advanced Video Codec
Format profile : Baseline@L3.1
Format settings, CABAC : No
Format settings, ReFrames : 2 frames
Format settings, GOP : M=1, N=72
Codec ID : avc1
Codec ID/Info : Advanced Video Coding
Duration : 6h 24mn
Source duration : 6h 24mn
Bit rate mode : Variable
Bit rate : 445 Kbps
Width : 848 pixels
Height : 480 pixels
Display aspect ratio : 16:9
Frame rate mode : Variable
Frame rate : 23.976 fps
Minimum frame rate : 23.976 fps
Maximum frame rate : 24.000 fps
Standard : NTSC
Color space : YUV
Chroma subsampling : 4:2:0
Bit depth : 8 bits
Scan type : Progressive
Bits/(Pixel*Frame) : 0.046
Stream size : 1.20 GiB (78%)
Source stream size : 1.20 GiB (78%)
Language : English
Encoded date : UTC 2013-02-02 08:37:47

Audio
ID : 2
Format : AAC
Format/Info : Advanced Audio Codec
Format profile : LC
Codec ID : 40
Duration : 6h 24mn
Source duration : 6h 24mn
Bit rate mode : Variable
Bit rate : 126 Kbps
Maximum bit rate : 196 Kbps
Channel(s) : 2 channels
Channel positions : Front: L R
Sampling rate : 44.1 KHz
Compression mode : Lossy
Stream size : 345 MiB (22%) 